# xmcd CD database file
# Copyright (C) 1997 Ti Kan
#
# Track frame offsets:
#  150
#  11865
#  23743
#
# Disc length: 445 seconds
#
# Revision: 1
# Processed by: cddbd v1.4b41PL1 Copyright (c) Steve Scherf et al.
# Submitted via: CDWizzard Release:4.31
#
DISCID=1a01bb03
DTITLE=Jeremy Spencer - Don't Go, Please Stay/You Made A Hit
DYEAR=1900
DGENRE=
TTITLE0=Mick Fleetwood interview
TTITLE1=Don't Go, Please Stay
TTITLE2=You Made A Hit
EXTD=
EXTT0=
EXTT1=
EXTT2=
PLAYORDER=
